# xmcd CD database file generated by OrangeCD 5.2
#
# Track frame offsets:
#	150
#	15481
#	33992
#	50381
#	68269
#	82928
#	101131
#	113592
#	132632
#	147963
#	166119
#	182330
#	197525
#	216440
#	237668
#	253796
#	274391
#	288350
#
# Disc length: 4081 seconds
#
# Revision: 1
# Processed by: cddbd v1.5.2PL0 Copyright (c) Steve Scherf et al.
# Submitted via: OrangeCD 5.2
#
DISCID=fd0fef12
DTITLE=Various Artist - Country's Got More Heart
DYEAR=1900
DGENRE=Country
TTITLE0=Kenny Chesney - She's got it all
TTITLE1=Diamond Rio - How your love makes me feel
TTITLE2=Terri Clark - Now that I found you
TTITLE3=Clint Black - Loving blind
TTITLE4=Martina McBride - Wrong again
TTITLE5=Darryl Worley - I miss my friend
TTITLE6=LeAnn Rimes - Blue
TTITLE7=Lonestar - I'm already there
TTITLE8=Montgomery Gentry - If you ever stop loving me
TTITLE9=Sarah Evans - Perfect
TTITLE10=Phil Vassar - In a real love
TTITLE11=Deana Carter - We danced anyway
TTITLE12=Mark Chesnutt - I'll think of something
TTITLE13=Brad Paisley - He didn't have to be
TTITLE14=Alabama - Forever's as far as I'll go
TTITLE15=Patty Loveless - Lonely too long
TTITLE16=Randy Travis - Forever together
TTITLE17=Vince Gill - Look at us
EXTD=
EXTT0=
EXTT1=
EXTT2=
EXTT3=
EXTT4=
EXTT5=
EXTT6=
EXTT7=
EXTT8=
EXTT9=
EXTT10=
EXTT11=
EXTT12=
EXTT13=
EXTT14=
EXTT15=
EXTT16=
EXTT17=
PLAYORDER=
